<svg xmlns="http://www.w3.org/2000/svg" width="42" height="25" viewBox="0 0 42 25"><path d="M0,0H42V25H0Z" fill="#0072ce" fill-rule="evenodd"/><path d="M35.451,14.559H33.967a.565.565,0,0,0-.329.061.264.264,0,0,0-.119.244.256.256,0,0,0,.178.253.93.93,0,0,0,.314.039l.441.012a1.289,1.289,0,0,1,.924.273.438.438,0,0,1,.076.084Zm0,2.239a1.27,1.27,0,0,1-1.1.435H32.774v-.728H34.34a.464.464,0,0,0,.329-.084.3.3,0,0,0,.1-.222.279.279,0,0,0-.1-.225.414.414,0,0,0-.287-.075c-.764-.026-1.718.024-1.718-1.051,0-.493.314-1.011,1.168-1.011h1.622v-.676H33.944a1.7,1.7,0,0,0-1.019.277v-.277H30.7a1.546,1.546,0,0,0-.973.277v-.277h-3.98v.277a2.123,2.123,0,0,0-1.1-.277H22.021v.277a1.861,1.861,0,0,0-1.148-.277H17.935l-.672.725-.63-.725H12.244V17.9h4.306l.693-.737.653.737,2.654,0V16.788h.261a2.773,2.773,0,0,0,1.134-.167V17.9h2.189V16.665h.106c.135,0,.148.006.148.14v1.1h6.651a1.9,1.9,0,0,0,1.108-.3v.3h2.11a2.834,2.834,0,0,0,1.194-.218ZM32.2,15.442a.944.944,0,0,1,.243.72c0,.731-.458,1.072-1.279,1.072H29.582v-.728h1.579a.48.48,0,0,0,.333-.084.3.3,0,0,0,.1-.222.291.291,0,0,0-.1-.225.429.429,0,0,0-.29-.075c-.761-.026-1.715.024-1.715-1.051,0-.493.31-1.011,1.164-1.011h1.632v.723H30.789a.552.552,0,0,0-.326.061.284.284,0,0,0,.056.5.939.939,0,0,0,.317.039l.438.012a1.316,1.316,0,0,1,.93.273Zm-7.347-.21a.781.781,0,0,1-.4.07h-.989v-.763h1a.8.8,0,0,1,.389.061.323.323,0,0,1,.169.306A.366.366,0,0,1,24.857,15.232Zm.492.423a.885.885,0,0,1,.4.285.987.987,0,0,1,.135.62v.673h-.817v-.425c0-.2.02-.507-.132-.665a.791.791,0,0,0-.6-.151h-.87v1.241h-.818v-3.4h1.88a2.021,2.021,0,0,1,.98.16.8.8,0,0,1,.419.754.951.951,0,0,1-.577.9Zm1.029-1.818h2.717v.7H27.188v.618h1.86v.693h-1.86v.676l1.907,0v.7H26.377ZM20.884,15.4H19.832v-.865h1.062c.294,0,.5.119.5.416s-.195.449-.507.449Zm-1.863,1.52-1.25-1.384,1.25-1.34Zm-3.228-.4h-2V15.85h1.787v-.693H13.791v-.618h2.041l.891.99Zm6.473-1.57c0,.944-.706,1.138-1.418,1.138H19.831v1.139H18.249l-1-1.124L16.2,17.233H12.98v-3.4h3.275l1,1.113,1.036-1.113h2.6c.646,0,1.372.178,1.372,1.119Z" fill="#fff" fill-rule="evenodd"/><path d="M9.1,9.922,8.538,8.568,7.984,9.922Zm12.276-.539a.757.757,0,0,1-.4.07H19.98V8.7h1a.837.837,0,0,1,.386.061.311.311,0,0,1,.171.3.347.347,0,0,1-.168.323Zm7.056.539-.563-1.354L27.3,9.922ZM15.275,11.388H14.44l0-2.66-1.181,2.66h-.715L11.358,8.725v2.662H9.7l-.313-.757h-1.7l-.316.757H6.493l1.458-3.4h1.21l1.385,3.215V7.992h1.329l1.066,2.3.979-2.3h1.356v3.4Zm3.327,0h-2.72v-3.4H18.6V8.7H16.7v.612h1.86v.7H16.7v.678H18.6Zm3.835-2.481a.956.956,0,0,1-.574.905.944.944,0,0,1,.4.286.974.974,0,0,1,.135.623v.667h-.821l0-.428a1.017,1.017,0,0,0-.129-.662.8.8,0,0,0-.593-.145H19.98v1.235h-.814v-3.4h1.873a1.923,1.923,0,0,1,.986.163.792.792,0,0,1,.412.752Zm1.3,2.481h-.831v-3.4h.831Zm9.638,0H32.223L30.68,8.839v2.549H29.022L28.7,10.63H27.014l-.307.757h-.953a1.715,1.715,0,0,1-1.181-.376,1.706,1.706,0,0,1-.435-1.3,1.8,1.8,0,0,1,.439-1.328,1.656,1.656,0,0,1,1.236-.4H26.6v.728H25.83a.785.785,0,0,0-.627.2,1.119,1.119,0,0,0-.234.769,1.175,1.175,0,0,0,.224.8.787.787,0,0,0,.567.175h.366l1.148-2.671h1.22L29.872,11.2V7.992h1.24l1.431,2.365V7.992h.834Zm-26.893.667H7.875l.314-.754h.7l.313.754h2.737v-.577l.244.579h1.421l.244-.588v.585h6.8l0-1.238h.132c.092,0,.119.012.119.163v1.075h3.518v-.288a2.794,2.794,0,0,0,1.306.288H27.2l.317-.754h.7l.31.754h2.852v-.717l.432.717H34.1V7.318H31.841v.559l-.317-.559H29.2v.559l-.291-.559H25.777a2.823,2.823,0,0,0-1.359.277V7.318H22.255v.277a1.344,1.344,0,0,0-.92-.277h-7.9L12.9,8.542l-.545-1.223H9.867v.559l-.273-.559H7.47L6.484,9.57v2.484Z" fill="#fff" fill-rule="evenodd"/></svg>