<svg xmlns="http://www.w3.org/2000/svg" width="42" height="25" viewBox="0 0 42 25"><path d="M0,0H42V25H0Z" fill="#fff" fill-rule="evenodd"/><path d="M.25.25h41.5v24.5H.25Z" fill="none" fill-rule="evenodd"/><g transform="translate(3.36 4.2)"><path d="M2.411,16.875H4.08V0H2.411Z" fill="#1e130f" fill-rule="evenodd"/><path d="M4.606,16.875h.518V0H4.606Z" fill="#1e130f" fill-rule="evenodd"/><path d="M5.575,16.875H6.5V0H5.575Z" fill="#1e130f" fill-rule="evenodd"/><path d="M7.394,16.875h.518V0H7.394Z" fill="#1e130f" fill-rule="evenodd"/><path d="M1.141,16.875h.518V0H1.141Z" fill="#1e130f" fill-rule="evenodd"/><path d="M0,16.875H.926V0H0Z" fill="#1e130f" fill-rule="evenodd"/><path d="M11.3,16.875h1.669V0H11.3Z" fill="#1e130f" fill-rule="evenodd"/><path d="M13.5,16.875h.518V0H13.5Z" fill="#1e130f" fill-rule="evenodd"/><path d="M14.464,16.875h.926V0h-.926Z" fill="#1e130f" fill-rule="evenodd"/><path d="M16.283,16.875H16.8V0h-.518Z" fill="#1e130f" fill-rule="evenodd"/><path d="M10.031,16.875h.518V0h-.518Z" fill="#1e130f" fill-rule="evenodd"/><path d="M8.889,16.875h.926V0H8.889Z" fill="#1e130f" fill-rule="evenodd"/><path d="M18.08,16.875h.926V0H18.08Z" fill="#1e130f" fill-rule="evenodd"/><path d="M19.9,16.875h.518V0H19.9Z" fill="#1e130f" fill-rule="evenodd"/><path d="M22.536,16.875h.518V0h-.518Z" fill="#1e130f" fill-rule="evenodd"/><path d="M21.4,16.875h.926V0H21.4Z" fill="#1e130f" fill-rule="evenodd"/><path d="M23.741,16.875h.518V0h-.518Z" fill="#1e130f" fill-rule="evenodd"/><path d="M26.378,16.875H26.9V0h-.518Z" fill="#1e130f" fill-rule="evenodd"/><path d="M25.237,16.875h.926V0h-.926Z" fill="#1e130f" fill-rule="evenodd"/><path d="M27.347,16.875h1.67V0h-1.67Z" fill="#1e130f" fill-rule="evenodd"/><path d="M29.543,16.875h.518V0h-.518Z" fill="#1e130f" fill-rule="evenodd"/><path d="M30.511,16.875h.926V0h-.926Z" fill="#1e130f" fill-rule="evenodd"/><path d="M32.33,16.875h.518V0H32.33Z" fill="#1e130f" fill-rule="evenodd"/><path d="M34.127,16.875h.926V0h-.926Z" fill="#1e130f" fill-rule="evenodd"/></g><path d="M7.7,23.1H34.392V12.646H7.7Z" fill="#fefefe" fill-rule="evenodd"/><path d="M10.92,19.444h1.423c.829,0,1.488-.347,1.488-1.129a.868.868,0,0,0-.688-.9v-.024a.889.889,0,0,0,.5-.829c0-.735-.617-.953-1.411-.953H10.92Zm.864-2.3v-.864H12.2c.406,0,.6.112.6.412,0,.276-.182.453-.606.453Zm0,1.629v-.988h.488c.476,0,.711.135.711.47,0,.353-.241.517-.711.517Zm4.251.741a1.761,1.761,0,0,0,1.74-2.005,1.754,1.754,0,1,0-3.481,0A1.761,1.761,0,0,0,16.036,19.515Zm0-.747c-.523,0-.853-.488-.853-1.258s.329-1.223.853-1.223.853.459.853,1.223S16.559,18.768,16.036,18.768Zm2.464.676h2.381v-.729H19.364v-3.1H18.5Zm3.046,0H24v-.729H22.41v-.882h1.305V17.11H22.41v-.77h1.535v-.729h-2.4Zm3.969,0h.87v-3.1h1.053v-.729H24.462v.729h1.053Zm4.081.071a1.761,1.761,0,0,0,1.74-2.005,1.754,1.754,0,1,0-3.481,0A1.761,1.761,0,0,0,29.595,19.515Zm0-.747c-.523,0-.853-.488-.853-1.258s.329-1.223.853-1.223.853.459.853,1.223S30.118,18.768,29.595,18.768Z" fill-rule="evenodd"/></svg>