<svg xmlns="http://www.w3.org/2000/svg" width="42" height="25" viewBox="0 0 42 25"><path d="M0,0H42V25H0Z" fill="#0069aa" fill-rule="evenodd"/><g transform="translate(13.02 5.88)"><path d="M0,7.126a6.579,6.579,0,1,1,6.579,6.593A6.586,6.586,0,0,1,0,7.126" fill="#0069aa" fill-rule="evenodd"/><path d="M10.844,6.817a3.966,3.966,0,0,0-2.54-3.7v7.4a3.966,3.966,0,0,0,2.54-3.7Zm-5.371,3.7V3.119a3.962,3.962,0,0,0,0,7.394ZM6.889.565a6.251,6.251,0,1,0,6.239,6.252A6.246,6.246,0,0,0,6.889.565ZM6.874,13.657A6.835,6.835,0,0,1,0,6.888,6.73,6.73,0,0,1,6.874,0H8.641a6.967,6.967,0,0,1,7.127,6.888,7.1,7.1,0,0,1-7.127,6.769Z" fill="#fff" fill-rule="evenodd"/></g></svg>