<svg xmlns="http://www.w3.org/2000/svg" width="42" height="25" viewBox="0 0 42 25"><path d="M0,0H42V25H0Z" fill-rule="evenodd"/><g transform="translate(7.56 7.56)"><path d="M4.059,2.131a3.022,3.022,0,0,1,.931-.146A2.914,2.914,0,0,1,7.866,4.257l2.013-.4A4.952,4.952,0,0,0,4.989,0,5.142,5.142,0,0,0,3.408.247Z" fill="#fff100" fill-rule="evenodd"/><path d="M1.684,8.436,3.045,6.949a2.775,2.775,0,0,1,0-4.25L1.683,1.211a4.718,4.718,0,0,0,0,7.225" fill="#00a4e0" fill-rule="evenodd"/><path d="M7.866,5.393A2.913,2.913,0,0,1,4.989,7.661a3.021,3.021,0,0,1-.932-.146L3.406,9.4a5.134,5.134,0,0,0,1.583.248A4.952,4.952,0,0,0,9.878,5.792Z" fill="#ee4023" fill-rule="evenodd"/><path d="M16.579,6.724a1.828,1.828,0,0,1-2.207.227l-.666,1.026a3.121,3.121,0,0,0,3.747-.385Z" fill="#fefefe" fill-rule="evenodd"/><path d="M13.545,5.669a1.5,1.5,0,0,1-.011-.209,1.765,1.765,0,0,1,1.821-1.706,1.808,1.808,0,0,1,1.341.615Zm1.828-3.126a3,3,0,0,0-3.09,2.9,2.856,2.856,0,0,0,.493,1.652L18.29,4.814a3.024,3.024,0,0,0-2.918-2.271Z" fill="#fefefe" fill-rule="evenodd"/><path d="M20.02,1.217V6.9l1.02.409L20.557,8.43l-1.009-.405a1.134,1.134,0,0,1-.5-.4,1.238,1.238,0,0,1-.2-.705v-5.7Z" fill="#fefefe" fill-rule="evenodd"/><path d="M23.7,3.843a1.838,1.838,0,0,1,.568-.089A1.778,1.778,0,0,1,26.021,5.14L27.25,4.9a3.023,3.023,0,0,0-2.984-2.356,3.137,3.137,0,0,0-.965.151Z" fill="#fefefe" fill-rule="evenodd"/><path d="M22.248,7.691l.83-.908a1.695,1.695,0,0,1,0-2.594l-.831-.908a2.88,2.88,0,0,0,0,4.41" fill="#fefefe" fill-rule="evenodd"/><path d="M26.021,5.834a1.779,1.779,0,0,1-1.756,1.385,1.847,1.847,0,0,1-.569-.089l-.4,1.15a3.136,3.136,0,0,0,.967.152A3.024,3.024,0,0,0,27.25,6.077Z" fill="#fefefe" fill-rule="evenodd"/></g></svg>