<svg xmlns="http://www.w3.org/2000/svg" width="42" height="25" viewBox="0 0 42 25"><path d="M0,0H42V25H0Z" fill="#951315" fill-rule="evenodd"/><path d="M28.584,13.928c-.45.442-1.713.568-1.584-.489.107-.878,1.06-1.065,2.091-.938a2.614,2.614,0,0,1-.508,1.427ZM27.163,10.5c-.043.242-.109.461-.162.693.515-.13,2.12-.527,2.274.163a1.213,1.213,0,0,1-.1.652c-1.451-.138-2.633.1-2.944,1.142a1.291,1.291,0,0,0,.467,1.57,1.938,1.938,0,0,0,2.254-.632,2.673,2.673,0,0,0-.061.652h.751a11.729,11.729,0,0,1,.223-1.957,7.763,7.763,0,0,0,.244-1.59c-.064-1.119-1.911-.723-2.944-.693ZM34.7,14.275c-.588.013-.88-.353-.894-.958-.023-1.061.44-2.239,1.381-2.345a2.282,2.282,0,0,1,1.076.163c-.295,1.191-.188,3.11-1.564,3.14Zm1.949-5.607c-.075.659-.175,1.292-.3,1.9-2.142-.681-3.455.9-3.432,2.854a1.54,1.54,0,0,0,.3,1.019,1.968,1.968,0,0,0,2.152.184,1.521,1.521,0,0,0,.3-.306c.057-.071.146-.258.162-.2a4.583,4.583,0,0,0-.081.632h.792a55.759,55.759,0,0,1,.975-6.076ZM14.289,13.949c-.467.5-1.616.489-1.706-.347a4.172,4.172,0,0,1,.162-1.121c.067-.381.116-.746.183-1.081.46-.564,1.812-.632,1.949.306a3.12,3.12,0,0,1-.589,2.243Zm.69-3.446a2.3,2.3,0,0,0-2.03.37c0,.014-.009.016-.021.017l.021-.017a.018.018,0,0,0,0,0c.007-.136.054-.231.061-.367h-.751c-.313,2.091-.684,4.124-1.076,6.137h.873c.126-.784.21-1.611.386-2.345.2.772,1.5.624,2.051.326,1.134-.616,2.008-3.545.487-4.118Zm4.142,1.468H17.071a1.212,1.212,0,0,1,1.157-1.019c.629-.024,1.079.232.893,1.019Zm-.833-1.549a2.275,2.275,0,0,0-1.543.632,3.552,3.552,0,0,0-.731,2.569c.157,1.412,1.909,1.362,3.31,1.019.024-.248.084-.46.122-.693a2.774,2.774,0,0,1-2.173.143c-.448-.285-.451-1-.3-1.631.942-.03,1.92-.024,2.863,0a3.027,3.027,0,0,0,.081-1.366c-.2-.579-.9-.728-1.624-.673Zm-7.676.082c-.024,0-.022.032-.02.061-.192,1.445-.453,2.821-.731,4.18h.873c.21-1.454.45-2.878.751-4.241Zm22.783.02a1.332,1.332,0,0,0-1.665.652c.071-.2.076-.468.142-.673H31.1q-.312,2.184-.751,4.241h.893a9.642,9.642,0,0,1,.2-1.529c.187-1.177.461-2.468,1.828-2.08.045-.2.064-.425.122-.612Zm-9.808,3.221a2.141,2.141,0,0,1-.081-.816A2.858,2.858,0,0,1,24.1,11.3a2.133,2.133,0,0,1,2.071-.122c.022-.243.071-.459.1-.693a3.291,3.291,0,0,0-2.884.55,3.493,3.493,0,0,0-.69,2.9c.314,1.033,1.723,1.089,2.863.693.05-.208.077-.439.122-.652-.623.325-1.815.494-2.092-.224ZM23.1,10.5a1.338,1.338,0,0,0-1.665.714c.064-.221.09-.48.142-.714h-.772c-.189,1.469-.467,2.848-.731,4.241h.873a16.731,16.731,0,0,1,.447-2.732,1.217,1.217,0,0,1,1.6-.877c.012-.233.078-.411.1-.632ZM9.03,8.79C8.9,9.6,8.764,10.4,8.623,11.2c-.9.01-1.828.045-2.7-.02.165-.779.283-1.605.447-2.385H5.395c-.349,1.988-.666,4.007-1.056,5.953h.995c.156-1,.3-2.007.508-2.956a24.159,24.159,0,0,1,2.68.02c-.168.987-.371,1.938-.528,2.936h1c.32-2.017.657-4.016,1.056-5.953Zm2.477.9c.174-.12.4-.669.142-.9a.482.482,0,0,0-.406-.061.49.49,0,0,0-.345.184c-.11.151-.211.606-.041.775s.539.077.65,0Z" fill="#fefefe" fill-rule="evenodd"/></svg>