<svg xmlns="http://www.w3.org/2000/svg" width="42" height="25" viewBox="0 0 42 25"><path d="M0,0H42V25H0Z" fill="#006" fill-rule="evenodd"/><path d="M23.574,12.8a8.2,8.2,0,1,1-8.2-8.2,8.2,8.2,0,0,1,8.2,8.2" fill="#c00" fill-rule="evenodd"/><path d="M26.382,4.607a8.167,8.167,0,0,0-5.5,2.122,8.354,8.354,0,0,0-.827.868h1.656a8.41,8.41,0,0,1,.625.868H19.427a8.234,8.234,0,0,0-.472.868H22.8a8.163,8.163,0,0,1,.347.868H18.608a8.16,8.16,0,0,0-.238.868h5.02a8.254,8.254,0,0,1-.238,4.339H18.608a8.282,8.282,0,0,0,.347.868H22.8a8.211,8.211,0,0,1-.473.868H19.427a8.264,8.264,0,0,0,.625.867h1.655a8.191,8.191,0,0,1-.828.868,8.2,8.2,0,1,0,5.5-14.272" fill="#f90" fill-rule="evenodd"/><path d="M13.464,13.7a1.531,1.531,0,0,0-.2-.014c-.5,0-.759.173-.759.515a.31.31,0,0,0,.319.344c.363,0,.624-.345.639-.845Zm.647,1.507h-.738l.017-.35a1.117,1.117,0,0,1-.933.409.832.832,0,0,1-.813-.923c0-.823.575-1.3,1.562-1.3a3.045,3.045,0,0,1,.363.026.835.835,0,0,0,.035-.219c0-.224-.155-.308-.571-.308a2.967,2.967,0,0,0-.942.152c.009-.056.123-.76.123-.76a3.537,3.537,0,0,1,1.065-.179c.764,0,1.169.343,1.168.991a4.335,4.335,0,0,1-.072.67c-.077.49-.243,1.54-.266,1.8Z" fill="#006" fill-rule="evenodd"/><path d="M11.273,15.208h-.89l.51-3.2-1.138,3.2H9.148L9.073,12.03l-.536,3.178H7.7l.7-4.157H9.68l.077,2.327.781-2.327h1.423Z" fill="#006" fill-rule="evenodd"/><path d="M27.481,13.7a1.523,1.523,0,0,0-.2-.014c-.5,0-.76.173-.76.515a.31.31,0,0,0,.319.344C27.2,14.546,27.466,14.2,27.481,13.7Zm.648,1.507h-.737l.017-.35a1.117,1.117,0,0,1-.932.409.831.831,0,0,1-.813-.923c0-.823.575-1.3,1.562-1.3a3.045,3.045,0,0,1,.363.026.83.83,0,0,0,.035-.219c0-.224-.155-.308-.571-.308a2.973,2.973,0,0,0-.942.152c.01-.056.124-.76.124-.76a3.535,3.535,0,0,1,1.064-.179c.765,0,1.169.343,1.168.991a4.3,4.3,0,0,1-.072.67c-.077.49-.243,1.54-.265,1.8Z" fill="#006" fill-rule="evenodd"/><path d="M18.066,15.156a2.034,2.034,0,0,1-.639.11.651.651,0,0,1-.7-.743,7.8,7.8,0,0,1,.122-.9c.052-.316.386-2.307.386-2.307h.884l-.1.512h.534l-.121.813H17.89c-.1.643-.249,1.444-.251,1.55,0,.174.093.251.3.251a.724.724,0,0,0,.24-.032Z" fill="#006" fill-rule="evenodd"/><path d="M20.777,15.129a3.008,3.008,0,0,1-.907.137,1.345,1.345,0,0,1-1.506-1.508c0-1.156.657-2.007,1.548-2.007a1.13,1.13,0,0,1,1.2,1.223,3.616,3.616,0,0,1-.109.832H19.236c-.059.491.254.695.769.695a2.1,2.1,0,0,0,.919-.213Zm-.5-2c.005-.071.094-.6-.412-.6-.281,0-.483.215-.565.6Z" fill="#006" fill-rule="evenodd"/><path d="M14.645,12.9a.987.987,0,0,0,.677.944c.36.17.416.22.416.373,0,.21-.159.306-.511.306a2.5,2.5,0,0,1-.8-.134l-.122.781a4.146,4.146,0,0,0,.926.1c.939,0,1.372-.357,1.372-1.13a.926.926,0,0,0-.627-.942c-.373-.171-.416-.209-.416-.367,0-.183.148-.276.435-.276a4.915,4.915,0,0,1,.639.051l.127-.784a6.008,6.008,0,0,0-.783-.066c-1,0-1.34.52-1.337,1.145" fill="#006" fill-rule="evenodd"/><path d="M25.1,11.84a1.692,1.692,0,0,1,.8.224l.146-.9a2.614,2.614,0,0,0-.978-.352,1.773,1.773,0,0,0-1.453.783c-.517-.171-.729.175-.989.519l-.231.054a1.727,1.727,0,0,0,.028-.34h-.818c-.111,1.047-.309,2.107-.464,3.154l-.041.227h.89c.149-.965.23-1.583.279-2l.335-.186c.05-.187.207-.249.521-.242a3.788,3.788,0,0,0-.063.693c0,1.106.6,1.8,1.555,1.8a2.777,2.777,0,0,0,.787-.122l.156-.947a1.732,1.732,0,0,1-.756.213c-.517,0-.83-.382-.83-1.013,0-.916.465-1.557,1.13-1.557" fill="#006" fill-rule="evenodd"/><path d="M32.639,11.05l-.2,1.2a1.112,1.112,0,0,0-.849-.552,1.379,1.379,0,0,0-1.125.842,7.323,7.323,0,0,1-.758-.209v0a5.006,5.006,0,0,0,.039-.509H28.93c-.111,1.047-.309,2.107-.464,3.154l-.041.227h.891c.12-.78.212-1.429.28-1.943.3-.275.457-.514.764-.5a2.9,2.9,0,0,0-.216,1.1c0,.845.427,1.4,1.074,1.4a1.049,1.049,0,0,0,.82-.373L32,15.207h.842l.678-4.157Zm-1.113,3.376c-.3,0-.456-.225-.456-.667,0-.665.287-1.136.69-1.136.306,0,.472.233.472.662,0,.67-.291,1.14-.706,1.14Z" fill="#006" fill-rule="evenodd"/><path d="M11.529,14.961h-.89l.51-3.2-1.138,3.2H9.4l-.075-3.177-.536,3.177H7.961l.7-4.157h1.28l.036,2.573.863-2.573h1.382Z" fill="#fff" fill-rule="evenodd"/><path d="M13.72,13.455a1.479,1.479,0,0,0-.2-.014c-.5,0-.76.173-.76.514a.311.311,0,0,0,.319.345c.362,0,.624-.345.639-.845Zm.647,1.506H13.63l.017-.35a1.118,1.118,0,0,1-.933.409A.832.832,0,0,1,11.9,14.1c0-.824.575-1.3,1.562-1.3a2.974,2.974,0,0,1,.363.026.839.839,0,0,0,.035-.22c0-.224-.155-.307-.571-.307a2.956,2.956,0,0,0-.942.152c.009-.056.123-.76.123-.76a3.547,3.547,0,0,1,1.065-.179c.764,0,1.169.343,1.168.992a4.328,4.328,0,0,1-.072.67c-.077.489-.243,1.54-.266,1.8Z" fill="#fff" fill-rule="evenodd"/><path d="M26.3,10.916l-.146.9a1.7,1.7,0,0,0-.795-.224c-.664,0-1.13.642-1.13,1.558,0,.631.313,1.012.831,1.012a1.722,1.722,0,0,0,.756-.213l-.156.947a2.777,2.777,0,0,1-.786.122c-.958,0-1.555-.689-1.555-1.795,0-1.486.825-2.525,2-2.525a3.08,3.08,0,0,1,.978.216" fill="#fff" fill-rule="evenodd"/><path d="M27.737,13.455a1.468,1.468,0,0,0-.2-.014c-.5,0-.759.173-.759.514a.311.311,0,0,0,.319.345c.362,0,.624-.345.639-.845Zm.648,1.506h-.737l.017-.35a1.117,1.117,0,0,1-.932.409.832.832,0,0,1-.813-.924c0-.824.575-1.3,1.562-1.3a2.966,2.966,0,0,1,.362.026.835.835,0,0,0,.035-.22c0-.224-.155-.307-.57-.307a2.957,2.957,0,0,0-.942.152c.009-.056.123-.76.123-.76a3.545,3.545,0,0,1,1.065-.179c.764,0,1.169.343,1.168.992a4.278,4.278,0,0,1-.072.67c-.077.489-.243,1.54-.266,1.8Z" fill="#fff" fill-rule="evenodd"/><path d="M18.322,14.91a2.033,2.033,0,0,1-.639.11.651.651,0,0,1-.7-.742,7.824,7.824,0,0,1,.122-.9c.051-.316.386-2.307.386-2.307h.885l-.1.512h.454l-.121.812h-.456c-.1.643-.249,1.444-.251,1.55,0,.175.093.251.3.251a.712.712,0,0,0,.24-.032Z" fill="#fff" fill-rule="evenodd"/><path d="M21.034,14.883a3.029,3.029,0,0,1-.908.137,1.344,1.344,0,0,1-1.506-1.508c0-1.156.656-2.007,1.547-2.007a1.13,1.13,0,0,1,1.2,1.224,3.664,3.664,0,0,1-.109.831H19.492c-.06.491.254.7.769.7a2.1,2.1,0,0,0,.92-.213Zm-.5-2c0-.071.094-.6-.412-.6-.282,0-.483.215-.565.6Z" fill="#fff" fill-rule="evenodd"/><path d="M14.9,12.649a.987.987,0,0,0,.678.944c.36.169.416.22.416.373,0,.211-.159.306-.511.306a2.507,2.507,0,0,1-.8-.133l-.122.78a4.12,4.12,0,0,0,.926.1c.939,0,1.373-.357,1.373-1.13a.925.925,0,0,0-.627-.942c-.373-.172-.416-.21-.416-.368,0-.183.148-.277.436-.277a4.949,4.949,0,0,1,.639.051l.127-.784a6.057,6.057,0,0,0-.783-.066c-1,0-1.34.52-1.337,1.145" fill="#fff" fill-rule="evenodd"/><path d="M33.095,14.961h-.842l.042-.315a1.048,1.048,0,0,1-.82.373c-.647,0-1.074-.557-1.074-1.4,0-1.125.663-2.072,1.448-2.072a1,1,0,0,1,.85.461l.2-1.2h.878Zm-1.313-.781c.415,0,.706-.47.706-1.139,0-.43-.166-.663-.471-.663-.4,0-.69.471-.69,1.136,0,.442.153.666.456.666Z" fill="#fff" fill-rule="evenodd"/><path d="M29.187,11.58c-.111,1.046-.309,2.106-.464,3.153l-.041.227h.89c.318-2.068.395-2.471.894-2.421a3.319,3.319,0,0,1,.338-.981c-.373-.078-.581.133-.854.533A3.079,3.079,0,0,0,30,11.58Z" fill="#fff" fill-rule="evenodd"/><path d="M21.862,11.58c-.112,1.046-.31,2.106-.464,3.153l-.04.227h.89c.319-2.068.395-2.471.893-2.421a3.339,3.339,0,0,1,.338-.981c-.372-.078-.581.133-.853.533a3.065,3.065,0,0,0,.053-.513Z" fill="#fff" fill-rule="evenodd"/></svg>