<svg xmlns="http://www.w3.org/2000/svg" width="42" height="25" viewBox="0 0 42 25"><path d="M0,0H42V25H0Z" fill="#26337a" fill-rule="evenodd"/><path d="M17.426,16.61,18.717,8.6h2.064L19.49,16.61Z" fill="#fff" fill-rule="evenodd"/><path d="M26.978,8.8a5.1,5.1,0,0,0-1.85-.336c-2.041,0-3.477,1.087-3.489,2.644-.013,1.152,1.025,1.794,1.808,2.176.8.392,1.075.643,1.071.994-.006.537-.642.782-1.236.782a4.134,4.134,0,0,1-1.944-.42l-.266-.128L20.784,16.3a6.23,6.23,0,0,0,2.3.427c2.169,0,3.578-1.074,3.595-2.736.007-.913-.543-1.605-1.734-2.177-.721-.371-1.164-.618-1.159-.994,0-.333.374-.689,1.183-.689a3.621,3.621,0,0,1,1.545.308l.185.092Z" fill="#fff" fill-rule="evenodd"/><path d="M29.726,13.769c.171-.46.822-2.239.822-2.239-.012.021.17-.464.274-.764l.139.691s.4,1.912.478,2.313Zm2.547-5.163h-1.6a1.02,1.02,0,0,0-1.082.664L26.53,16.613H28.7s.354-.988.434-1.2l2.644,0c.062.28.251,1.2.251,1.2h1.916Z" fill="#fff" fill-rule="evenodd"/><path d="M15.694,8.605l-2.02,5.462-.216-1.11A6.152,6.152,0,0,0,10.6,9.6L12.446,16.6h2.185l3.251-8Z" fill="#fff" fill-rule="evenodd"/><path d="M11.8,8.6H8.469l-.027.166a6.929,6.929,0,0,1,5.015,4.191l-.723-3.681A.867.867,0,0,0,11.8,8.6" fill="#ed982d" fill-rule="evenodd"/></svg>